<?xml version="1.0" encoding="iso-8859-1"?>
<!-- Generator: Adobe Illustrator 19.0.0, SVG Export Plug-In . SVG Version: 6.00 Build 0)  -->
<svg version="1.1" id="Layer_1" xmlns="http://www.w3.org/2000/svg" xmlns:xlink="http://www.w3.org/1999/xlink" x="0px" y="0px"
	 viewBox="0 0 511.999 511.999" style="enable-background:new 0 0 511.999 511.999;" xml:space="preserve">
<polygon style="fill:#ECF8FD;" points="422.555,87.386 506.861,176.776 379.374,176.776 "/>
<polygon style="fill:#CBEDF9;" points="256.008,87.386 379.374,178.832 422.555,87.386 "/>
<polygon style="fill:#AAE2F5;" points="506.861,176.776 256.008,424.611 379.374,176.776 "/>
<polygon style="fill:#7DD2F0;" points="90.471,87.386 7.193,177.804 135.708,178.832 "/>
<polygon style="fill:#64B9DC;" points="256.008,87.386 135.708,178.832 90.471,87.386 "/>
<polygon style="fill:#AAE2F5;" points="256.008,87.386 133.652,177.804 379.374,178.832 "/>
<polygon style="fill:#7DD2F0;" points="133.652,177.804 256.008,424.611 380.402,177.804 "/>
<polygon style="fill:#64B9DC;" points="7.193,177.804 256.008,424.611 133.652,177.804 "/>
<path style="fill:#2D2B29;" d="M504.812,160.648L504.812,160.648l-72.779-72.78c-5.734-5.733-12.606-8.764-19.874-8.764H100.613
	c-7.442,0-15.168,3.283-20.667,8.782l-72.72,72.716C2.566,165.262,0,171.456,0,178.044c0,6.588,2.566,12.783,7.225,17.441
	l229.2,229.2c4.877,4.877,11.254,7.709,18.091,8.068c0.065,0.012,0.131,0.021,0.196,0.03c0.08,0.013,0.158,0.029,0.239,0.04
	c0.058,0.007,0.116,0.017,0.174,0.023c0.168,0.017,0.339,0.022,0.511,0.029c0.119,0.005,0.238,0.021,0.357,0.021
	c0.002,0,0.004-0.001,0.006-0.001c0.002,0,0.004,0.001,0.006,0.001c0.118,0,0.238-0.015,0.357-0.021
	c0.172-0.008,0.342-0.012,0.511-0.029c0.059-0.006,0.116-0.016,0.175-0.023c0.08-0.011,0.158-0.027,0.238-0.04
	c0.066-0.01,0.133-0.018,0.197-0.03c6.836-0.36,13.212-3.19,18.09-8.067l229.217-229.223
	C514.393,185.859,514.405,170.242,504.812,160.648z M157.748,169.693l90.026-66.019v66.019H157.748z M247.774,186.143v203.683
	L145.932,186.143H247.774z M135.621,165.52l-34.983-69.966h130.391L135.621,165.52z M233.934,398.932L21.146,186.143H127.54
	L233.934,398.932z M354.264,228.137c-4.062-2.032-9.003-0.385-11.035,3.678l-79.005,158.01V186.143h16.452
	c4.542,0,8.225-3.683,8.225-8.225c0-4.542-3.683-8.225-8.225-8.225h-16.452v-66.019l69.117,50.687
	c1.466,1.075,3.17,1.594,4.858,1.594c2.53,0,5.028-1.165,6.64-3.363c2.686-3.663,1.895-8.81-1.768-11.497l-62.102-45.541H411.36
	l-37.069,74.138h-60.72c-4.542,0-8.225,3.683-8.225,8.225s3.683,8.225,8.225,8.225h52.495l-6.385,12.77
	c-2.032,4.063-0.384,9.004,3.679,11.035c1.18,0.59,2.436,0.871,3.671,0.871c3.018,0,5.922-1.667,7.363-4.548l10.064-20.128h106.388
	L278.064,398.93l79.878-159.757C359.973,235.109,358.326,230.168,354.264,228.137z M490.593,169.693h-97.911l32.637-65.275
	L490.593,169.693z M86.678,104.418l32.637,65.275H21.399L86.678,104.418z"/>
<g>
</g>
<g>
</g>
<g>
</g>
<g>
</g>
<g>
</g>
<g>
</g>
<g>
</g>
<g>
</g>
<g>
</g>
<g>
</g>
<g>
</g>
<g>
</g>
<g>
</g>
<g>
</g>
<g>
</g>
</svg>
