<?xml version="1.0" encoding="iso-8859-1"?>
<!-- Generator: Adobe Illustrator 19.0.0, SVG Export Plug-In . SVG Version: 6.00 Build 0)  -->
<svg version="1.1" id="Layer_1" xmlns="http://www.w3.org/2000/svg" xmlns:xlink="http://www.w3.org/1999/xlink" x="0px" y="0px"
	 viewBox="0 0 511.999 511.999" style="enable-background:new 0 0 511.999 511.999;" xml:space="preserve">
<path style="fill:#FF6464;" d="M416.282,488.038c-17.721,11.433-55.198,32.013-109.685,8.089
	c-63.184-27.741-83.685-96.253-58.262-136.226c17.101-26.889,47.387-28.582,66.353-40.817s33.789-39.643,64.63-43.682
	c45.848-6.005,96.172,43.266,92.345,114.238C468.363,450.842,434.003,476.606,416.282,488.038z"/>
<path style="fill:#D2555A;" d="M376.301,467.028c-60.213-31.536-87.829-96.195-77.124-140.372
	c-17.421,6.978-37.904,12.899-50.844,33.246c-25.422,39.972-4.922,108.483,58.262,136.225c54.487,23.922,91.964,3.343,109.685-8.089
	c2.374-1.531,5.059-3.343,7.913-5.439C410.163,481.012,394.225,476.415,376.301,467.028z"/>
<path style="fill:#FF6464;" d="M129.713,500.232c20.758,5.742,63.585,14.471,109.832-23.953
	c53.629-44.558,53.322-115.508,16.531-146.124c-24.749-20.595-54.916-13.467-77.13-19.613
	c-22.215-6.146-44.888-27.889-76.296-22.829c-46.691,7.521-81.318,68.809-56.454,135.08
	C67.638,479.941,108.955,494.491,129.713,500.232z"/>
<path style="fill:#D2555A;" d="M112.866,452.215c-19.328-66.385,8.909-130.021,48.492-148.898
	c-17.025-8.428-35.474-19.346-58.708-15.603c-46.691,7.521-81.318,68.808-56.454,135.08c21.442,57.148,62.758,71.697,83.517,77.439
	c2.557,0.708,5.456,1.46,8.648,2.164C128.431,490.496,119.326,474.406,112.866,452.215z"/>
<g>
	<path style="fill:#2D2B29;" d="M232.053,362.553c2.153,1.755,4.044,3.969,5.624,6.582c1.503,2.487,4.145,3.863,6.854,3.863
		c1.409,0,2.834-0.372,4.128-1.154c3.781-2.285,4.994-7.202,2.709-10.982c-2.53-4.188-5.629-7.791-9.208-10.709
		c-3.424-2.791-8.462-2.277-11.253,1.147C228.114,354.724,228.628,359.763,232.053,362.553z"/>
	<path style="fill:#2D2B29;" d="M251.414,390.215c-4.387-0.566-8.389,2.532-8.953,6.914c-1.779,13.837-8.589,27.183-19.695,38.593
		c-3.081,3.165-3.012,8.229,0.153,11.311c1.555,1.514,3.567,2.267,5.578,2.267c2.083,0,4.164-0.809,5.732-2.42
		c13.54-13.912,21.874-30.411,24.097-47.71C258.89,394.787,255.795,390.777,251.414,390.215z"/>
	<path style="fill:#2D2B29;" d="M84.086,406.902c-1.739-4.538-3.093-9.165-4.029-13.755c-0.881-4.328-5.102-7.122-9.434-6.241
		c-4.328,0.882-7.123,5.105-6.241,9.434c1.11,5.449,2.713,10.928,4.765,16.284c5.14,13.421,11.972,24.868,20.304,34.02
		c1.579,1.734,3.743,2.613,5.917,2.613c1.922,0,3.849-0.688,5.382-2.084c3.266-2.974,3.503-8.032,0.53-11.299
		C94.294,428.202,88.51,418.455,84.086,406.902z"/>
	<path style="fill:#2D2B29;" d="M450.294,294.787c-19.083-19.098-43.699-28.656-67.53-26.232
		c-24.09,2.454-39.945,16.242-53.932,28.407c-2.987,2.598-5.896,5.122-8.768,7.431c-21.513-23.977-37.237-62.174-43.506-106.162
		c-6.997-49.083-1.674-98.543,14.987-139.269c0.278-0.679,0.446-1.374,0.531-2.068c10.192-17.83,22.293-31.09,37.67-37.131
		c22.026-8.653,50.273-2.427,86.354,19.035c3.797,2.26,8.706,1.011,10.963-2.785c2.259-3.796,1.011-8.705-2.785-10.963
		C383.663,0.896,350.831-5.704,323.896,4.875c-46.081,18.1-65.103,82.877-85.243,151.456
		c-15.704,53.474-31.929,108.696-61.383,144.976c-5.259-1.932-10.763-4.647-16.514-7.492c-16.654-8.235-35.529-17.571-59.363-13.809
		c-23.4,3.693-44.488,19.07-57.855,42.188c-17.156,29.67-19.184,67.082-5.564,102.642c24.5,63.97,73.795,77.328,89.993,81.719l0,0
		c6.978,1.891,20.09,5.445,36.987,5.445c22.348-0.001,51.314-6.221,81.433-30.736c3.34-2.718,6.51-5.567,9.518-8.52
		c10.951,10.868,24.05,19.749,39.065,26.448c21.046,9.39,40.024,12.744,56.5,12.744c32.498,0,55.258-13.053,64.918-18.594
		c14.566-8.355,58.892-33.781,65.851-101.618C486.08,354.28,474.436,318.948,450.294,294.787z M254.001,160.839
		c1.225-4.168,2.443-8.32,3.665-12.447c-0.431,17.186,0.569,34.673,3.053,52.099c6.543,45.907,23.031,86.271,45.765,112.68
		c-5.172,2.431-11.115,4.451-17.34,6.557c-7.041,2.381-14.269,4.841-21.433,8.177c-1.467-1.418-2.988-2.779-4.572-4.071
		c-18.769-15.3-39.73-16.761-58.223-18.049c-3.523-0.246-6.956-0.491-10.258-0.822C222.964,266.5,238.722,212.866,254.001,160.839z
		 M236.288,468.858c-46.528,37.869-89.889,26.119-104.136,22.258l0,0c-14.257-3.863-57.645-15.621-79.238-72
		c-11.886-31.034-10.255-63.441,4.474-88.913c10.941-18.92,27.889-31.457,46.501-34.394c2.811-0.444,5.553-0.647,8.236-0.647
		c15.268,0,28.593,6.59,41.543,12.994c8.205,4.058,15.957,7.889,24.108,10.109c0.051,0.015,0.103,0.028,0.154,0.042
		c8.156,2.2,16.765,2.8,25.876,3.436c16.909,1.179,34.392,2.397,49.228,14.49c2.449,1.996,4.707,4.216,6.8,6.603
		c0.034,0.041,0.07,0.078,0.105,0.117c10.516,12.05,16.415,28.73,16.409,47.174c-0.009,23.406-9.32,46.408-26.015,65.273
		c-0.299,0.292-0.575,0.6-0.818,0.926C245.507,460.753,241.092,464.948,236.288,468.858z M466.324,390.091
		c-6.122,59.676-45.092,82.028-57.897,89.374c-12.813,7.35-51.807,29.716-106.941,5.118c-13.479-6.014-25.171-13.983-34.854-23.729
		c16.548-20.774,25.701-45.49,25.71-70.722c0.007-18.458-4.969-35.59-14.05-49.42c5.258-2.201,10.674-4.039,15.976-5.832
		c8.697-2.941,16.913-5.72,24.263-9.936c7.353-4.217,13.883-9.897,20.797-15.911c12.789-11.123,26.014-22.623,45.055-24.563
		c19.029-1.939,38.926,5.944,54.594,21.624C459.706,326.837,469.673,357.453,466.324,390.091z"/>
	<path style="fill:#2D2B29;" d="M421.412,323.787c-3.496,2.7-4.142,7.723-1.442,11.22c8.526,11.042,13.147,25.294,13.363,41.216
		c0.059,4.38,3.628,7.89,7.995,7.89c0.037,0,0.074,0,0.111-0.001c4.417-0.06,7.949-3.688,7.889-8.105
		c-0.263-19.413-6.037-36.971-16.697-50.776C429.931,321.732,424.909,321.086,421.412,323.787z"/>
	<path style="fill:#2D2B29;" d="M400.623,303.064c-4.75-1.172-9.489-1.529-14.083-1.062c-4.395,0.448-7.594,4.373-7.147,8.768
		c0.448,4.395,4.367,7.587,8.768,7.147c2.764-0.284,5.667-0.054,8.63,0.678c0.644,0.159,1.288,0.235,1.923,0.235
		c3.593,0,6.86-2.439,7.759-6.084C407.53,308.457,404.912,304.122,400.623,303.064z"/>
	<path style="fill:#2D2B29;" d="M347.536,462.233c-10.365-0.486-21.348-3.288-32.644-8.328c-4.437-1.979-8.668-4.293-12.576-6.879
		c-3.683-2.437-8.646-1.425-11.084,2.26c-2.437,3.684-1.425,8.646,2.26,11.084c4.639,3.068,9.646,5.809,14.884,8.144
		c13.124,5.856,26.048,9.119,38.412,9.698c0.127,0.006,0.254,0.009,0.381,0.009c4.245,0,7.782-3.338,7.983-7.623
		C355.359,466.184,351.949,462.44,347.536,462.233z"/>
</g>
<g>
</g>
<g>
</g>
<g>
</g>
<g>
</g>
<g>
</g>
<g>
</g>
<g>
</g>
<g>
</g>
<g>
</g>
<g>
</g>
<g>
</g>
<g>
</g>
<g>
</g>
<g>
</g>
<g>
</g>
</svg>
